HIERARCHY
ROOT joint_Root
{
	OFFSET 0.0 0.0 0.0
	CHANNELS 6 Xposition Yposition Zposition Zrotation Xrotation Yrotation 
	JOINT Hips
	{
		OFFSET 4.5925 91.4895 -427.239
		CHANNELS 6 Xposition Yposition Zposition Zrotation Xrotation Yrotation 
		JOINT Spine
		{
			OFFSET 15.7357 0.0 0.0
			CHANNELS 6 Xposition Yposition Zposition Zrotation Xrotation Yrotation 
			JOINT Chest
			{
				OFFSET 8.98455 -0.406207 0.0
				CHANNELS 6 Xposition Yposition Zposition Zrotation Xrotation Yrotation 
				JOINT Neck
				{
					OFFSET 16.3773 0.0 0.0
					CHANNELS 6 Xposition Yposition Zposition Zrotation Xrotation Yrotation 
					JOINT Head
					{
						OFFSET 6.45672 0.0 0.0
						CHANNELS 6 Xposition Yposition Zposition Zrotation Xrotation Yrotation 
						End Site
						{
							OFFSET 0.0 0.0 0.0
						}
					}
				}
				JOINT Shoulder_L
				{
					OFFSET 12.9942 -0.242716 4.98039
					CHANNELS 6 Xposition Yposition Zposition Zrotation Xrotation Yrotation 
					JOINT UpperArm_L
					{
						OFFSET 5.34809 0.0 0.0
						CHANNELS 6 Xposition Yposition Zposition Zrotation Xrotation Yrotation 
						JOINT LowerArm_L
						{
							OFFSET 24.3286 1.87007e-05 0.0
							CHANNELS 6 Xposition Yposition Zposition Zrotation Xrotation Yrotation 
							JOINT Hand_L
							{
								OFFSET 22.2916 0.0 0.0
								CHANNELS 6 Xposition Yposition Zposition Zrotation Xrotation Yrotation 
								End Site
								{
									OFFSET 0.0 0.0 0.0
								}
							}
						}
					}
				}
				JOINT Shoulder_R
				{
					OFFSET 12.9945 -0.242716 -4.98039
					CHANNELS 6 Xposition Yposition Zposition Zrotation Xrotation Yrotation 
					JOINT UpperArm_R
					{
						OFFSET -5.34813 0.0 0.0
						CHANNELS 6 Xposition Yposition Zposition Zrotation Xrotation Yrotation 
						JOINT LowerArm_R
						{
							OFFSET -24.3289 0.000322201 0.0
							CHANNELS 6 Xposition Yposition Zposition Zrotation Xrotation Yrotation 
							JOINT Hand_R
							{
								OFFSET -22.2915 -0.000108084 0.0
								CHANNELS 6 Xposition Yposition Zposition Zrotation Xrotation Yrotation 
								End Site
								{
									OFFSET 0.0 0.0 0.0
								}
							}
						}
					}
				}
			}
		}
		JOINT UpperLeg_L
		{
			OFFSET -2.19248 -6.46944 0.0
			CHANNELS 6 Xposition Yposition Zposition Zrotation Xrotation Yrotation 
			JOINT LowerLeg_L
			{
				OFFSET 39.0811 0.0 -1.23785e-05
				CHANNELS 6 Xposition Yposition Zposition Zrotation Xrotation Yrotation 
				JOINT Foot_L
				{
					OFFSET 40.9854 0.0 -1.26872e-05
					CHANNELS 6 Xposition Yposition Zposition Zrotation Xrotation Yrotation 
					JOINT Toes_L
					{
						OFFSET 11.7543 0.0 0.0
						CHANNELS 6 Xposition Yposition Zposition Zrotation Xrotation Yrotation 
						End Site
						{
							OFFSET 0.0 0.0 0.0
						}
					}
				}
			}
		}
		JOINT UpperLeg_R
		{
			OFFSET -2.19251 6.46944 0.0
			CHANNELS 6 Xposition Yposition Zposition Zrotation Xrotation Yrotation 
			JOINT LowerLeg_R
			{
				OFFSET -39.0811 -0.00228153 -0.0401928
				CHANNELS 6 Xposition Yposition Zposition Zrotation Xrotation Yrotation 
				JOINT Foot_R
				{
					OFFSET -40.9854 0.0 0.0
					CHANNELS 6 Xposition Yposition Zposition Zrotation Xrotation Yrotation 
					JOINT Toes_R
					{
						OFFSET -11.7543 0.0 0.0
						CHANNELS 6 Xposition Yposition Zposition Zrotation Xrotation Yrotation 
						End Site
						{
							OFFSET 0.0 0.0 0.0
						}
					}
				}
			}
		}
	}
}
MOTION
Frames:	6
Frame Time:	0.0333333
0.000000 0.000000 0.000000 0.000000 0.000000 -0.000000 3.003530 83.234900 18.330900 -89.791600 -0.897713 178.971000 15.735700 0.000005 -0.000001 73.770300 83.168000 -71.468500 8.984550 -0.406207 -0.000000 5.444890 -3.856810 4.783250 16.377300 -0.000001 -0.000001 -2.692210 -4.923920 2.544240 6.456720 -0.000001 -0.000000 -6.928410 -1.922710 0.944026 12.994200 -0.242716 4.980390 -89.908700 -0.291240 -72.595400 5.348090 -0.000007 -0.000001 -69.578800 26.967500 -9.325470 24.328600 0.000019 0.000005 40.315500 -15.084900 -107.051000 22.291600 -0.000001 0.000005 9.962350 5.417580 -3.517690 12.994500 -0.242716 -4.980390 87.493900 8.173850 -72.889700 -5.348130 -0.000001 -0.000004 -57.546600 31.493500 -9.578920 -24.328900 0.000322 -0.000009 28.701100 -7.240380 -102.963000 -22.291500 -0.000108 -0.000004 20.247300 5.632540 -13.526900 -2.192480 -6.469440 -0.000000 -177.040000 -1.434280 -16.128500 39.081100 -0.000007 -0.000012 -0.133960 0.000330 89.862700 40.985400 -0.000006 -0.000013 8.702560 -7.059750 -49.200200 11.754300 -0.000000 0.000003 -0.006171 -0.072393 -19.523200 -2.192510 6.469440 -0.000001 -177.221000 13.685200 168.495000 -39.081100 -0.002282 -0.040193 0.133213 -0.097130 53.230300 -40.985400 0.000008 0.000006 12.110000 -0.951795 -87.835300 -11.754300 -0.000006 -0.000006 -3.590260 -4.278350 -20.521500
0.000000 0.000000 0.000000 0.000000 0.000000 -0.000000 2.899490 85.583900 11.463400 -91.073000 1.623240 177.405000 15.735700 0.000005 -0.000001 91.565900 84.035600 -90.321400 8.984550 -0.406207 -0.000000 4.156440 0.286310 2.475910 16.377300 -0.000001 -0.000001 -3.103640 -5.120400 3.269850 6.456720 -0.000001 -0.000000 -6.528510 -4.466500 3.358250 12.994200 -0.242716 4.980390 -89.900200 -0.296526 -71.395700 5.348090 -0.000007 -0.000001 -71.383400 26.680100 0.310179 24.328600 0.000019 0.000005 43.326000 -15.042700 -105.385000 22.291600 -0.000001 0.000005 7.115080 5.454970 -4.820280 12.994500 -0.242716 -4.980390 88.059200 7.432640 -75.321200 -5.348130 -0.000001 -0.000004 -62.509800 30.512300 -10.146700 -24.328900 0.000322 -0.000009 22.712300 -4.870610 -101.466000 -22.291500 -0.000108 -0.000004 26.803400 5.649390 -14.930900 -2.192480 -6.469440 -0.000000 179.896000 -2.179140 -23.724300 39.081100 -0.000007 -0.000012 -0.107541 0.006801 86.385800 40.985400 -0.000006 -0.000013 8.849280 -8.569370 -54.230600 11.754300 -0.000000 0.000003 -0.005756 -0.068613 -19.369100 -2.192510 6.469440 -0.000001 179.606000 13.348900 174.484000 -39.081100 -0.002282 -0.040193 0.099424 -0.092181 46.211500 -40.985400 0.000008 0.000006 12.571600 3.306640 -80.890000 -11.754300 -0.000006 -0.000006 -0.027231 -0.204481 -24.943900
0.000000 0.000000 0.000000 0.000000 0.000000 -0.000000 2.626500 88.535300 4.568660 -92.113000 3.754840 174.818000 15.735700 0.000005 -0.000001 111.908000 84.415900 -111.884000 8.984550 -0.406207 -0.000000 2.600910 4.162420 -0.045033 16.377300 -0.000001 -0.000001 -3.804840 -5.375940 3.623940 6.456720 -0.000001 -0.000000 -7.030990 -7.169850 5.368030 12.994200 -0.242716 4.980390 -89.673500 -0.887606 -69.807800 5.348090 -0.000007 -0.000001 -70.239500 27.745000 6.928290 24.328600 0.000019 0.000005 40.675500 -14.059600 -105.784000 22.291600 -0.000001 0.000005 7.162980 5.459350 -4.977140 12.994500 -0.242716 -4.980390 88.594500 6.160930 -77.123600 -5.348130 -0.000001 -0.000004 -66.418200 30.941500 -10.080300 -24.328900 0.000322 -0.000009 16.241100 -3.046650 -100.340000 -22.291500 -0.000108 -0.000004 34.450900 5.661820 -16.259800 -2.192480 -6.469440 -0.000000 177.162000 -1.705680 -30.182800 39.081100 -0.000007 -0.000012 -0.066604 0.015782 76.675400 40.985400 -0.000006 -0.000013 8.400790 -9.959850 -57.430700 11.754300 -0.000000 0.000003 -0.005935 -0.070253 -19.435900 -2.192510 6.469440 -0.000001 176.570000 14.450300 177.596000 -39.081100 -0.002282 -0.040193 0.086028 -0.098176 40.126600 -40.985400 0.000008 0.000006 12.606000 8.806330 -68.547600 -11.754300 -0.000006 -0.000006 -0.110827 -0.470660 -36.273000
0.000000 0.000000 0.000000 0.000000 0.000000 -0.000000 2.411420 91.268000 -2.637570 -92.482400 5.582930 173.286000 15.735700 0.000005 -0.000001 126.664000 83.957900 -127.656000 8.984550 -0.406207 -0.000000 2.006870 7.260970 -2.111320 16.377300 -0.000001 -0.000001 -4.661620 -5.600140 3.538490 6.456720 -0.000001 -0.000000 -8.024160 -9.044680 6.007670 12.994200 -0.242716 4.980390 -89.291000 -1.756100 -68.010100 5.348090 -0.000007 -0.000001 -68.037800 28.470400 11.937700 24.328600 0.000019 0.000005 36.045700 -12.980200 -107.152000 22.291600 -0.000001 0.000005 7.959610 5.459900 -4.997380 12.994500 -0.242716 -4.980390 89.009600 4.816440 -78.366600 -5.348130 -0.000001 -0.000004 -67.904900 32.566400 -10.346300 -24.328900 0.000322 -0.000009 14.743500 -2.736720 -100.284000 -22.291500 -0.000108 -0.000004 36.623900 5.656540 -15.675300 -2.192480 -6.469440 -0.000000 176.063000 -1.405380 -32.558000 39.081100 -0.000007 -0.000012 -0.012190 0.006576 61.674800 40.985400 -0.000006 -0.000013 6.786200 -9.698350 -59.655100 11.754300 -0.000000 0.000003 -0.006145 -0.072152 -19.513400 -2.192510 6.469440 -0.000001 173.553000 17.074400 -179.696000 -39.081100 -0.002282 -0.040193 0.096132 -0.130596 35.409500 -40.985400 0.000008 0.000006 11.487200 15.867600 -53.449400 -11.754300 -0.000006 -0.000006 -0.202335 -0.648967 -44.405300
0.000000 0.000000 0.000000 0.000000 0.000000 -0.000000 2.577430 92.682400 -10.129600 -91.268500 5.752870 173.489000 15.735700 0.000005 -0.000001 130.429000 83.255600 -131.656000 8.984550 -0.406207 -0.000000 2.625700 8.795290 -2.658140 16.377300 -0.000001 -0.000001 -5.479280 -5.789650 3.276400 6.456720 -0.000001 -0.000000 -9.257140 -9.696830 4.727760 12.994200 -0.242716 4.980390 -88.812000 -2.731840 -66.486300 5.348090 -0.000007 -0.000001 -65.752800 27.870800 15.245700 24.328600 0.000019 0.000005 28.925100 -10.999100 -109.048000 22.291600 -0.000001 0.000005 7.761090 5.446720 -4.522630 12.994500 -0.242716 -4.980390 89.270900 3.638220 -78.659500 -5.348130 -0.000001 -0.000004 -66.885200 35.333300 -11.979300 -24.328900 0.000322 -0.000009 13.968600 -2.885270 -101.440000 -22.291500 -0.000108 -0.000004 34.456500 5.653860 -15.387400 -2.192480 -6.469440 -0.000000 177.378000 -1.413870 -31.450100 39.081100 -0.000007 -0.000012 0.020538 -0.020410 45.174000 40.985400 -0.000006 -0.000013 4.698630 -6.679520 -62.408600 11.754300 -0.000000 0.000003 -0.005821 -0.069208 -19.393300 -2.192510 6.469440 -0.000001 171.901000 18.898300 -176.401000 -39.081100 -0.002282 -0.040193 0.144992 -0.211910 33.769600 -40.985400 0.000008 0.000006 4.815890 19.144800 -40.487500 -11.754300 -0.000006 -0.000006 -0.104427 -0.455409 -35.602500
0.000000 0.000000 0.000000 0.000000 0.000000 -0.000000 3.232910 92.654300 -17.983600 -88.866500 4.795780 175.141000 15.735700 0.000005 -0.000001 128.503000 82.569000 -129.216000 8.984550 -0.406207 -0.000000 3.965850 9.263010 -1.747600 16.377300 -0.000001 -0.000001 -5.534810 -5.638200 2.362990 6.456720 -0.000001 -0.000000 -10.236500 -9.784260 2.773960 12.994200 -0.242716 4.980390 -88.332000 -3.746070 -65.977400 5.348090 -0.000007 -0.000001 -64.318200 25.845000 17.417000 24.328600 0.000019 0.000005 23.461600 -9.431580 -110.685000 22.291600 -0.000001 0.000005 7.872290 5.419400 -3.579520 12.994500 -0.242716 -4.980390 89.501300 2.466130 -78.564200 -5.348130 -0.000001 -0.000004 -64.431800 38.354200 -14.286200 -24.328900 0.000322 -0.000009 13.867600 -3.507540 -103.919000 -22.291500 -0.000108 -0.000004 31.454500 5.639300 -14.057900 -2.192480 -6.469440 -0.000000 -179.959000 -1.555230 -28.366400 39.081100 -0.000007 -0.000012 0.011913 -0.019477 31.450000 40.985400 -0.000006 -0.000013 2.565700 -1.362370 -66.404100 11.754300 -0.000000 0.000003 -0.006203 -0.072678 -19.534800 -2.192510 6.469440 -0.000001 172.835000 17.888500 -172.085000 -39.081100 -0.002282 -0.040193 0.175341 -0.251533 34.372300 -40.985400 0.000008 0.000006 -1.620320 13.904700 -32.883200 -11.754300 -0.000006 -0.000006 -0.020210 -0.168452 -23.455800
